<?xml version="1.0" encoding="utf-8"?>
<!-- Generator: Adobe Illustrator 24.1.0, SVG Export Plug-In . SVG Version: 6.00 Build 0)  -->
<svg version="1.1" id="Capa_1" xmlns="http://www.w3.org/2000/svg" xmlns:xlink="http://www.w3.org/1999/xlink" x="0px" y="0px"
	 viewBox="0 0 499 84.4" style="enable-background:new 0 0 499 84.4;" xml:space="preserve">
<style type="text/css">
	.st0{fill:#000027;}
	.st1{fill:url(#SVGID_1_);}
	.st2{fill:url(#SVGID_2_);}
	.st3{fill:url(#SVGID_3_);}
</style>
<g>
	<path class="st0" d="M170.8,56.7c-0.3,1.1-0.7,2.4-1,3.5c-3,11.2-8.6,19.8-21.3,19.8c-18.8,0-17.5-11.9-14-28.3l1.8-8.7
		c3.8-15.6,7.5-27.2,25.8-27.2c10.2,0.2,14.8,5.4,13.4,15.9c-0.2,1.6-0.3,3.1-0.7,4.7h-11.3c0.3-3.9,2.3-11.3-3.4-11.3
		c-9,0-10.5,10.7-11.5,15.4l-3.6,17c-1.1,5.1-2.5,13.3,5.4,13.3c6.3,0,7.8-10.1,8.8-14.1H170.8z"/>
	<path class="st0" d="M178.5,43c3.8-15.6,7.5-27.2,25.8-27.2s17.1,11.6,14.2,27.2l-1.8,8.7c-3.5,16.3-7.3,28.3-26.1,28.3
		s-17.5-11.9-14-28.3L178.5,43z M187.2,57.4c-1.1,5.1-2.5,13.3,5.4,13.3c8.2,0,10.1-8.4,11.3-14.3l3.4-15.7
		c1.1-4.9,3.6-15.8-4.9-15.8c-9,0-10.5,10.7-11.5,15.4L187.2,57.4z"/>
	<path class="st0" d="M258.3,17.2h11.4l-13,61.3h-11.9l-4.2-21.8c-1.5-7.3-2.4-14.7-3-24.4h-0.2c-0.7,5.1-1.5,11.3-2.5,17.5
		c-1,6.1-2,12.3-3.1,17.2l-2.5,11.5h-11.4l13-61.3h11.8l4.2,22.3c1.5,7.1,2.4,14.4,3,24.4h0.2c0.8-5.6,1.6-11.5,2.5-17.4
		c1-5.9,2-11.8,3.1-17.2L258.3,17.2z"/>
	<path class="st0" d="M266.3,78.5l13-61.3h32.2l-1.9,9h-20.8l-3.3,15.4h19.1l-2,9h-19.1l-4,18.9h20.8l-1.9,9H266.3z M299.1,0h12.7
		l-14.6,11.9h-8.3L299.1,0z"/>
	<path class="st0" d="M345.8,56.7c-0.3,1.1-0.7,2.4-1,3.5c-3,11.2-8.6,19.8-21.3,19.8c-18.8,0-17.5-11.9-14-28.3l1.8-8.7
		c3.8-15.6,7.5-27.2,25.8-27.2c10.2,0.2,14.8,5.4,13.4,15.9c-0.2,1.6-0.3,3.1-0.7,4.7h-11.3c0.3-3.9,2.3-11.3-3.4-11.3
		c-9,0-10.5,10.7-11.5,15.4l-3.6,17c-1.1,5.1-2.5,13.3,5.4,13.3c6.3,0,7.8-10.1,8.8-14.1H345.8z"/>
	<path class="st0" d="M354.8,17.2H393l-1.9,9h-13.3l-11.1,52.3h-11.4l11.1-52.3h-13.4L354.8,17.2z"/>
	<path class="st0" d="M373.6,78.5l27.6-61.3h15.4l0.9,61.3h-12.3l0.2-15.5h-13.4l-6.3,15.5H373.6z M395.9,54h9.8l0.6-17.4
		c0-2.9,0.4-5.6,0.7-8.5c0.2-1.4,0.3-2.8,0.5-4.1h-0.2c-0.5,1.3-0.9,2.7-1.3,4.1c-0.9,2.9-1.8,5.6-2.9,8.5L395.9,54z"/>
	<path class="st0" d="M424.4,17.2h38.2l-1.9,9h-13.3l-11.1,52.3h-11.4l11.1-52.3h-13.4L424.4,17.2z"/>
	<path class="st0" d="M453.8,78.5l13-61.3H499l-1.9,9h-20.8l-3.3,15.4h19.1l-2,9h-19.1l-4,18.9h20.8l-1.9,9H453.8z"/>
	<g>
		<path class="st0" d="M40.3,58.7h-0.2l-4.7,18.7h-22l7.4-30.1c4.1,3.2,8.6,5.7,13.3,8.5C36.1,56.9,38.3,57.6,40.3,58.7z"/>
		<path class="st0" d="M40.3,4.3v0.5c-5.1,0.4-9.6,4.2-10.8,9.3l-6.5,26C-0.8,25.6-6.3,8.8,14.9,5c0,0,0,0,0,0
			C25.6,3.5,40.3,4.3,40.3,4.3z"/>
		<path class="st0" d="M96.7,24.4l-3.5,14.4H81.1l-4,16.7c-2.7-0.1-16.2-1.7-20.3-2.6l2.9-11.9l0.5-2.2H44.9l3.3-14.4h18.1l4.9-19.9
			h0.4c4.4,0,8.4,1.9,11,5.3c2.7,3.5,3.6,8,2.6,12.4l-0.5,2.2H96.7z"/>
		<path class="st0" d="M85.4,73l-0.9,4.1c-3,0.8-6.3,1.2-10,1.2c-6.3,0-11.2-1.5-14.5-4.4c-1.7-1.5-2.9-3.2-3.7-5.3
			c-0.6-1.5-1.4-3.4,0-2.9c0.6,0.2,21.6,4.9,22.2,5.1C86,72.9,86,70.2,85.4,73z"/>
		<g>
			<linearGradient id="SVGID_1_" gradientUnits="userSpaceOnUse" x1="1.4011" y1="32.0903" x2="111.6048" y2="32.0903">
				<stop  offset="3.840144e-02" style="stop-color:#9501FF"/>
				<stop  offset="0.1925" style="stop-color:#6A01FF"/>
				<stop  offset="1" style="stop-color:#05FFFF"/>
			</linearGradient>
			<path class="st1" d="M2.6,21.1c0.3,0.7,0.6,1.3,1,2C5,25.6,6.9,27.9,9,30c2.1,2.1,4.3,4,6.6,5.8c2.3,1.8,4.7,3.4,7.2,5
				c2.5,1.5,5,3,7.6,4.4c1.3,0.7,2.6,1.3,3.9,1.9c0.3,0.2,0.7,0.3,1,0.5l1,0.4l2,0.9c5.4,2.3,11,4.1,16.7,5.6l4.3,1l4.3,0.9
				c0.7,0.2,1.4,0.3,2.2,0.4l2.2,0.3c1.4,0.3,2.9,0.4,4.4,0.6c5.8,0.7,11.7,1,17.6,0.9c4.6-0.1,9.2-0.4,13.8-1.1
				c1,1.3,2.6,2,4.3,1.6c2.4-0.5,3.9-2.8,3.4-5.2c-0.5-2.4-2.8-3.9-5.2-3.4c-1.6,0.3-2.8,1.5-3.3,3c-4.3,0.8-8.8,1.2-13.2,1.4
				c-5.7,0.3-11.5,0.1-17.2-0.4c-1.4-0.1-2.9-0.2-4.3-0.4l-2.1-0.3c-0.7-0.1-1.4-0.2-2.1-0.3l-4.3-0.7L55.7,52
				c-5.6-1.3-11.1-2.9-16.5-5l-2-0.8l-1-0.4c-0.3-0.1-0.7-0.3-1-0.4c-1.3-0.6-2.6-1.2-3.9-1.8c-2.6-1.3-5.1-2.6-7.6-4.1
				c-2.5-1.5-4.9-3-7.3-4.7c-2.3-1.7-4.6-3.5-6.6-5.5c-2.1-2-4-4.2-5.5-6.6c-0.4-0.6-0.7-1.2-1-1.9c-0.3-0.6-0.6-1.3-0.8-2
				C2,17.4,1.9,16,2,14.6c0.1-1.4,0.7-2.8,1.6-3.9c0.8-1.1,2-2.1,3.2-2.8C8,7.1,9.3,6.6,10.7,6.1c1.4-0.5,2.8-0.8,4.2-1.1
				c-1.4,0.2-2.9,0.6-4.2,1c-1.4,0.4-2.8,1-4,1.7c-1.3,0.7-2.5,1.6-3.4,2.8c-0.9,1.2-1.6,2.6-1.8,4.1c-0.2,1.5-0.1,3,0.4,4.4
				C2,19.7,2.3,20.4,2.6,21.1z"/>
			<linearGradient id="SVGID_2_" gradientUnits="userSpaceOnUse" x1="-5.8429" y1="16.2925" x2="109.7439" y2="67.233">
				<stop  offset="3.840144e-02" style="stop-color:#9501FF"/>
				<stop  offset="0.3653" style="stop-color:#6A01FF"/>
				<stop  offset="1" style="stop-color:#05FFFF"/>
			</linearGradient>
			<path class="st2" d="M126.7,59c-0.7-2.3-3.1-3.6-5.4-3c-1.6,0.5-2.7,1.7-3,3.3c-4.1,1.1-8.4,1.9-12.6,2.5
				c-1.4,0.2-2.8,0.4-4.2,0.5l-2.1,0.2c-0.7,0.1-1.4,0.1-2.1,0.2L93,62.9l-4.2,0c-11.2-0.2-22.5-1.8-33.3-5
				c-5.4-1.6-10.7-3.6-15.9-5.9c-5.2-2.3-10.3-4.8-15.2-7.6c-2.4-1.4-4.9-2.9-7.2-4.5c-2.3-1.6-4.6-3.3-6.8-5.1
				c-2.2-1.8-4.2-3.8-6-6c-1.8-2.2-3.4-4.5-4.6-7.1c1,2.6,2.6,5.1,4.4,7.3c1.8,2.2,3.8,4.3,5.9,6.2c2.1,1.9,4.3,3.7,6.6,5.4
				c2.3,1.7,4.7,3.3,7.1,4.8c4.9,3,9.9,5.7,15.1,8.1c5.1,2.5,10.5,4.6,15.9,6.4c10.9,3.6,22.3,5.6,33.8,6.1l4.3,0.1l4.3-0.1
				c0.7,0,1.4-0.1,2.2-0.1l2.2-0.1c1.4-0.1,2.9-0.2,4.3-0.4c4.4-0.5,8.9-1.2,13.2-2.3c1.1,1.2,2.8,1.7,4.5,1.2
				C126.1,63.7,127.4,61.3,126.7,59z"/>
			<linearGradient id="SVGID_3_" gradientUnits="userSpaceOnUse" x1="4.4785" y1="55.4339" x2="105.7095" y2="55.4339">
				<stop  offset="3.840144e-02" style="stop-color:#9501FF"/>
				<stop  offset="0.1925" style="stop-color:#6A01FF"/>
				<stop  offset="1" style="stop-color:#05FFFF"/>
			</linearGradient>
			<path class="st3" d="M101.4,68.2c-1.7,0-3.1,0.9-3.9,2.3c-3.1,0-6.2-0.2-9.4-0.4c-4.4-0.3-8.8-0.8-13.1-1.5
				c-4.4-0.7-8.7-1.6-12.9-2.7l-1.6-0.4c-0.5-0.1-1.1-0.3-1.6-0.4l-3.2-1l-3.1-1c-1-0.4-2.1-0.8-3.1-1.1
				c-8.3-3.1-16.2-7.1-23.8-11.8c-3.8-2.3-7.5-4.8-11-7.5c-3.6-2.7-7-5.5-10.2-8.7c3.1,3.2,6.4,6.3,9.8,9.1
				c3.5,2.8,7.1,5.5,10.8,7.9c7.4,5,15.3,9.3,23.6,12.8c1,0.4,2.1,0.9,3.1,1.3l3.2,1.2l3.2,1.1c0.5,0.2,1.1,0.4,1.6,0.5l1.6,0.5
				c4.3,1.3,8.7,2.4,13.1,3.3c4.4,0.9,8.9,1.5,13.4,2c3.2,0.3,6.4,0.6,9.6,0.7c0.7,1.4,2.2,2.5,3.9,2.5c2.4,0,4.4-1.9,4.4-4.3
				C105.7,70.2,103.8,68.2,101.4,68.2z"/>
		</g>
		<g>
			
				<image style="overflow:visible;" width="76" height="77" xlink:href="A4EA22AF.png"  transform="matrix(1 0 0 1 68.9244 16.3669)">
			</image>
		</g>
		<g>
			
				<image style="overflow:visible;" width="76" height="76" xlink:href="A4EA22AD.png"  transform="matrix(1 0 0 1 84.9244 22.3669)">
			</image>
		</g>
		<g>
			
				<image style="overflow:visible;" width="76" height="76" xlink:href="A4EA22B3.png"  transform="matrix(1 0 0 1 63.9244 34.3669)">
			</image>
		</g>
	</g>
</g>
</svg>
