<svg width="193" height="88" viewBox="0 0 193 88" fill="none" xmlns="http://www.w3.org/2000/svg">
<g clip-path="url(#clip0_4512_1389)">
<path d="M85.5305 44.106C85.3975 68.1594 65.954 87.1201 42.4348 86.9994C19.0771 86.8796 -0.0480441 67.5309 9.06615e-05 43.8848C0.0483061 20.1973 19.2592 0.949551 42.8029 1.0001C66.4771 1.05093 85.5536 20.2963 85.5305 44.106ZM66.7478 37.2646C66.4641 37.0693 66.2641 36.9285 66.0611 36.7924C63.0042 34.7434 59.0142 35.5424 56.9739 38.6116C55.0525 41.5019 55.1616 45.8177 57.2265 48.6007C58.8698 50.8154 61.7463 51.7496 64.3261 50.9007C65.2348 50.6017 66.0083 50.058 66.7433 49.4308C67.2727 50.6816 67.8752 51.0809 68.8762 50.8951C69.738 50.7351 70.1751 50.0259 70.1755 48.7797C70.1766 45.0182 70.1816 41.2567 70.1744 37.4953C70.1719 36.1539 69.1392 35.372 67.9066 35.7641C67.2178 35.9832 66.9374 36.5542 66.7478 37.2646ZM14.9739 37.9081C14.9739 37.475 14.974 37.1853 14.9739 36.8955C14.9733 35.2386 14.9911 33.5814 14.9652 31.925C14.9488 30.8752 14.2246 30.2038 13.221 30.232C12.2873 30.2582 11.6222 30.9263 11.6208 31.9018C11.6129 37.6885 11.6112 43.4752 11.6215 49.2619C11.6234 50.3063 12.3422 50.9518 13.3775 50.9132C14.3535 50.8768 14.9647 50.1878 14.9712 49.0709C14.9854 46.6228 14.9445 44.1737 15.0024 41.7268C15.044 39.9711 16.4138 38.7734 18.2351 38.7658C19.919 38.7588 20.7978 39.6935 20.9107 41.6183C20.9266 41.8896 20.924 42.1621 20.924 42.434C20.9246 44.6597 20.9179 46.8854 20.926 49.111C20.93 50.2087 21.5593 50.8912 22.5529 50.9128C23.6015 50.9355 24.2868 50.2749 24.2961 49.1541C24.3151 46.8544 24.2954 44.5544 24.3034 42.2546C24.306 41.4858 24.2755 40.719 24.1405 39.9644C23.8041 38.0847 23.1869 36.371 21.075 35.8669C19.3605 35.4577 17.7026 35.6035 16.2646 36.7766C15.8669 37.101 15.4913 37.453 14.9739 37.9081ZM36.6414 51.2002C37.664 51.2673 38.7465 51.0308 39.8284 50.6635C43.4162 49.4455 45.8517 45.69 46.0059 42.223C46.0571 41.0724 45.448 40.3405 44.4038 40.2339C43.3142 40.1227 42.6146 40.7138 42.4115 41.9029C42.1349 43.5215 41.6236 45.0025 40.4277 46.2276C38.2698 48.4384 34.235 48.3934 32.2697 45.6254C31.512 44.5581 31.0441 43.416 30.9164 42.1195C30.7866 40.8024 30.0889 40.2646 28.6402 40.352C27.6621 40.411 27.2544 40.9896 27.2437 42.2721C27.2376 43.0212 27.45 43.7146 27.6492 44.4247C28.733 48.2893 32.3277 51.3129 36.6414 51.2002ZM37.8084 29.9531C40.5411 29.9394 43.2602 31.6026 44.535 34.055C45.1171 35.1749 45.4477 36.3501 45.3311 37.6213C45.3003 37.9573 45.2568 38.372 44.7995 38.3866C44.3606 38.4005 44.2554 38.0351 44.1991 37.6764C44.1492 37.359 44.116 37.039 44.065 36.7218C43.6102 33.8911 41.4691 31.7776 38.6132 31.3372C35.9326 30.9238 33.2207 32.3374 32.0033 34.7972C31.5198 35.774 31.3532 36.8161 31.4978 37.8966C31.6297 38.8818 32.1477 39.3747 32.9545 39.3319C33.6684 39.2941 34.1053 38.7582 34.1769 37.8298C34.1883 37.6818 34.1838 37.5324 34.2005 37.3852C34.5044 34.7092 37.074 33.3236 39.4383 34.5594C40.5543 35.1428 41.3696 36.592 41.2658 37.8171C41.2426 38.0905 41.2207 38.3756 40.8656 38.4352C40.4727 38.5012 40.3524 38.2317 40.2649 37.9316C40.2026 37.7184 40.1675 37.4963 40.0943 37.2874C39.7474 36.2977 38.7768 35.4968 37.9472 35.4897C37.6774 35.4874 37.4413 35.5278 37.3846 35.8358C37.3391 36.0828 37.4356 36.3018 37.6998 36.335C38.8347 36.4775 39.2051 37.2908 39.449 38.259C39.6564 39.0819 40.1708 39.4181 40.9667 39.3264C41.6502 39.2476 42.0789 38.794 42.123 38.0174C42.1963 36.7263 41.8437 35.5508 40.9418 34.6171C39.6139 33.2422 37.9617 32.8813 36.198 33.4825C34.3147 34.1245 33.4688 35.6306 33.3021 37.5683C33.2718 37.9196 33.3643 38.4241 32.8333 38.4092C32.3503 38.3957 32.3432 37.8918 32.3346 37.5444C32.3042 36.3232 32.5897 35.1846 33.4022 34.2364C34.966 32.4114 36.9276 31.7634 39.2343 32.4055C41.5347 33.0458 42.7754 34.6831 43.2028 36.9946C43.2879 37.455 43.2875 37.9324 43.4703 38.373C43.7246 38.9858 44.1787 39.3 44.8449 39.2941C45.5107 39.2882 45.8726 38.8883 46.0823 38.3109C46.2895 37.7406 46.2994 37.145 46.2263 36.5518C45.5925 31.4072 40.4778 27.9798 35.5076 29.3645C31.7967 30.3984 29.379 33.4778 29.151 37.4548C29.1273 37.8676 29.174 38.4004 28.5963 38.4141C28.0171 38.4279 27.9305 37.9078 27.9026 37.4548C27.8415 36.4624 27.906 35.4823 28.2134 34.5232C29.4955 30.5228 32.8821 27.9115 37.1789 27.6319C37.5349 27.6088 37.9306 27.6242 37.8929 27.1203C37.8636 26.728 37.5302 26.7124 37.2185 26.7339C32.8016 27.0388 29.6265 29.1946 27.755 33.2324C27.0557 34.7413 26.8035 36.3495 27.0926 38.0091C27.2335 38.8181 27.8866 39.3447 28.6403 39.3203C29.4051 39.2955 29.8651 38.8165 29.9744 37.9258C30.0045 37.6805 30.0271 37.4341 30.0487 37.1878C30.4167 32.9994 33.6616 29.9738 37.8084 29.9531ZM49.2219 40.5042C49.2219 43.3723 49.2108 46.2405 49.2271 49.1085C49.2342 50.3563 50.0654 51.0786 51.2185 50.899C52.0784 50.7651 52.6017 50.0649 52.6027 48.9969C52.6075 43.409 52.6056 37.8212 52.6036 32.2334C52.6035 32.0366 52.596 31.8366 52.5619 31.6435C52.3656 30.5313 51.3227 29.9317 50.2862 30.3525C49.5058 30.6694 49.216 31.2999 49.2189 32.1224C49.2288 34.9163 49.2227 37.7103 49.2219 40.5042ZM78.7537 30.1286C78.8159 27.3528 76.5732 25.0109 73.7753 24.9301C70.9998 24.8499 68.6318 27.1632 68.5906 29.9952C68.5503 32.7698 70.8292 35.1149 73.6069 35.1573C76.3725 35.1995 78.6909 32.9343 78.7537 30.1286ZM51.4812 58.3361C51.4127 58.3541 51.3441 58.3721 51.2756 58.3901C50.7621 57.7335 50.2487 57.0768 49.7352 56.4202C49.6102 56.2604 49.4726 56.1068 49.2456 56.1815C49.0188 56.256 48.9911 56.457 48.991 56.6645C48.9908 57.5294 48.986 58.3943 48.9913 59.2591C48.9927 59.5016 48.9695 59.8167 49.3245 59.7992C49.6859 59.7814 49.5995 59.4455 49.6068 59.2204C49.6238 58.6951 49.6122 58.1689 49.6122 57.6431C50.3042 58.2477 50.8177 58.8958 51.3304 59.5446C51.474 59.7264 51.6312 59.8914 51.8872 59.7822C52.1128 59.6861 52.093 59.4642 52.0939 59.2706C52.0983 58.4059 52.0967 57.5411 52.0935 56.6764C52.0927 56.4504 52.088 56.179 51.7921 56.1762C51.4984 56.1734 51.4822 56.4376 51.4816 56.6684C51.4804 57.2243 51.4812 57.7802 51.4812 58.3361ZM44.0687 56.1467C42.8972 56.1416 42.8963 56.1416 42.8942 57.3554C42.8932 57.9234 42.8865 58.4917 42.9021 59.0594C42.9102 59.3522 42.7593 59.7976 43.2555 59.7926C43.689 59.7883 43.5923 59.3714 43.5757 59.1005C43.5485 58.6581 43.6909 58.4879 44.1546 58.4994C44.6649 58.5121 44.9975 58.6068 45.0341 59.2156C45.056 59.5778 45.2842 59.9421 45.7117 59.781C46.1611 59.6117 45.697 59.351 45.682 59.1274C45.6486 58.6322 45.3065 58.2074 45.665 57.6222C46.0562 56.9833 45.5016 56.2228 44.7311 56.1499C44.5121 56.1292 44.2896 56.1467 44.0687 56.1467ZM25.5014 57.6427C25.5636 57.6243 25.6258 57.606 25.688 57.5876C26.1879 58.2218 26.6848 58.8583 27.1895 59.4885C27.3242 59.6566 27.4514 59.8713 27.7226 59.7995C28.0585 59.7106 27.9797 59.4212 27.9821 59.1893C27.9907 58.3504 27.9895 57.5113 27.9841 56.6724C27.9827 56.4548 27.9991 56.1787 27.685 56.1816C27.3703 56.1845 27.3967 56.4611 27.3946 56.6785C27.3889 57.2559 27.3927 57.8334 27.3927 58.4108C26.6981 57.7882 26.1726 57.1206 25.6576 56.4449C25.5126 56.2548 25.3587 56.0975 25.1089 56.1948C24.8812 56.2835 24.9047 56.5088 24.9045 56.7046C24.9034 57.5683 24.9031 58.432 24.9094 59.2956C24.9109 59.5111 24.8769 59.7891 25.1927 59.7985C25.5113 59.808 25.4939 59.5272 25.4979 59.3131C25.5083 58.7565 25.5014 58.1995 25.5014 57.6427ZM37.2391 57.9973C37.2373 57.9973 37.2355 57.9973 37.2337 57.9973C37.2337 58.4424 37.2317 58.8875 37.2344 59.3326C37.2362 59.606 37.3066 59.8232 37.6425 59.8214C38.1832 59.8184 38.724 59.823 39.2647 59.8209C39.4572 59.8202 39.6174 59.7524 39.5929 59.5255C39.5702 59.3162 39.4116 59.2569 39.218 59.2594C38.9477 59.2629 38.6768 59.2462 38.4071 59.2584C38.0837 59.2729 37.8985 59.1859 37.9224 58.8062C37.9424 58.4884 37.9405 58.2397 38.3753 58.2111C38.7187 58.1886 39.3369 58.4707 39.3373 57.9186C39.3376 57.4857 38.7297 57.6972 38.3924 57.6752C38.0456 57.6525 37.9226 57.5221 37.9228 57.1787C37.923 56.8297 38.0529 56.68 38.4012 56.7007C38.646 56.7152 38.8926 56.7023 39.1384 56.6975C39.3323 56.6938 39.5755 56.7224 39.593 56.4508C39.6098 56.1892 39.3896 56.1698 39.1827 56.1434C37.3215 55.9052 37.2181 55.9938 37.239 57.8489C37.2396 57.8983 37.2391 57.9478 37.2391 57.9973ZM55.491 57.9608C55.491 58.4061 55.4908 58.8514 55.4911 59.2967C55.4912 59.5632 55.536 59.8108 55.8697 59.8171C56.4349 59.8277 57.0004 59.8207 57.5659 59.8183C57.7304 59.8176 57.866 59.7445 57.868 59.5694C57.8705 59.3607 57.7271 59.2677 57.5287 59.2643C57.2338 59.2591 56.9381 59.2441 56.6441 59.2591C56.3033 59.2765 56.1553 59.1652 56.1872 58.7928C56.2151 58.4673 56.2336 58.2359 56.6595 58.2117C56.9917 58.1929 57.5997 58.4197 57.6068 57.9831C57.6158 57.4192 56.997 57.7147 56.6559 57.6795C56.3044 57.6432 56.2062 57.5017 56.1898 57.1697C56.1718 56.8024 56.3128 56.6804 56.6564 56.7002C56.9258 56.7157 57.1971 56.699 57.4675 56.6987C57.6459 56.6984 57.851 56.6888 57.8684 56.4723C57.8882 56.2254 57.695 56.1688 57.4759 56.137C55.6743 55.8757 55.4917 56.0264 55.4895 57.8123C55.4894 57.8618 55.4894 57.9113 55.491 57.9608ZM61.9514 58.2226H61.9553C61.9553 58.5929 61.9538 58.9633 61.9558 59.3336C61.957 59.5682 61.9846 59.7991 62.2871 59.8104C62.6356 59.8234 62.6674 59.5677 62.6686 59.3059C62.6714 58.7133 62.6934 58.1195 62.6628 57.5285C62.6352 56.9978 62.6646 56.5776 63.372 56.6955C63.5457 56.7245 63.7485 56.6837 63.7656 56.4642C63.786 56.2011 63.5781 56.1466 63.3669 56.1456C62.6553 56.1421 61.9437 56.1417 61.2321 56.1461C61.0491 56.1472 60.8697 56.2065 60.8607 56.4203C60.8512 56.6447 61.0391 56.7219 61.2142 56.6905C61.9641 56.5559 62.006 57.0027 61.9548 57.5562C61.9344 57.7765 61.9514 58.0003 61.9514 58.2226ZM33.0089 58.1853C33.0089 58.0619 33.0122 57.9385 33.0084 57.8152C32.9893 57.2071 32.8395 56.5087 33.8617 56.6821C34.0172 56.7085 34.1415 56.5655 34.112 56.393C34.0759 56.1827 33.8899 56.1459 33.7151 56.1445C33.0533 56.1394 32.3913 56.1392 31.7295 56.147C31.5196 56.1495 31.2342 56.0967 31.22 56.4165C31.2049 56.7562 31.5039 56.719 31.704 56.6938C32.2184 56.6291 32.3316 56.8721 32.3069 57.3336C32.2754 57.9239 32.289 58.5175 32.3047 59.1091C32.312 59.3823 32.2032 59.7781 32.6413 59.7994C33.1038 59.8219 32.991 59.4209 33.0038 59.1471C33.0187 58.8271 33.0073 58.5059 33.0089 58.1853ZM20.8756 57.9588C20.8756 58.4249 20.8707 58.8911 20.8777 59.357C20.881 59.5822 20.8915 59.8227 21.2155 59.8067C21.4787 59.7937 21.5204 59.5946 21.5214 59.3909C21.5262 58.4587 21.5243 57.5266 21.5218 56.5944C21.5212 56.3823 21.4612 56.1842 21.2133 56.1771C20.913 56.1685 20.8758 56.3979 20.8752 56.6341C20.8742 57.0757 20.8749 57.5172 20.8756 57.9588Z" fill="#0285AD"/>
<path d="M92.5761 45.1115C92.5761 34.274 92.5758 23.4365 92.5771 12.599C92.5772 12.2529 92.5747 11.9052 92.6054 11.5612C92.6569 10.9858 93.0443 10.6085 93.5531 10.5974C94.077 10.586 94.4379 10.977 94.4872 11.5541C94.504 11.7508 94.5044 11.9495 94.5044 12.1472C94.5053 34.1439 94.5055 56.1406 94.505 78.1373C94.505 78.3103 94.5115 78.4859 94.4856 78.6558C94.4048 79.1864 94.0859 79.5399 93.5609 79.5336C93.048 79.5274 92.7062 79.1838 92.6205 78.6605C92.5729 78.3701 92.5807 78.0689 92.5807 77.7725C92.5789 66.8855 92.5792 55.9985 92.5792 45.1115L92.5761 45.1115Z" fill="#0285AD"/>
<path d="M116.829 58.364C117.594 57.0085 118.278 55.7871 118.972 54.5716C119.13 54.2942 119.301 53.99 119.703 54.0781C120.106 54.1662 120.159 54.5197 120.161 54.8331C120.174 57.085 120.168 59.3371 120.163 61.5891C120.162 61.9996 119.992 62.3864 119.559 62.3646C119.114 62.3422 118.933 61.9643 118.936 61.5083C118.945 60.3452 118.944 59.1819 118.936 58.0188C118.934 57.783 119.009 57.5303 118.779 57.2112C118.321 58.0011 117.841 58.7204 117.473 59.4939C117.12 60.2368 116.48 60.3727 116.119 59.5534C115.77 58.7615 115.303 58.0222 114.871 57.2278C114.572 57.4461 114.663 57.6866 114.661 57.8851C114.649 59.0482 114.648 60.2114 114.653 61.3745C114.654 61.8247 114.56 62.3261 114.091 62.3581C113.555 62.3946 113.502 61.8603 113.501 61.429C113.494 59.2758 113.494 57.1227 113.499 54.9696C113.5 54.5939 113.523 54.1901 113.984 54.0808C114.452 53.9697 114.6 54.3304 114.783 54.6696C115.433 55.8724 116.106 57.0624 116.829 58.364Z" fill="#0285AD"/>
<path d="M141.054 29.9667C141.091 31.3318 140.743 32.4451 139.915 33.3539C138.412 35.0032 135.919 34.6268 134.881 32.6271C133.985 30.8997 133.992 29.1723 134.95 27.4891C135.593 26.3601 136.578 25.7119 137.918 25.84C139.345 25.9763 140.185 26.9104 140.699 28.1561C140.949 28.7632 141.152 29.4126 141.054 29.9667ZM135.55 30.1936C135.6 30.5188 135.616 30.9224 135.73 31.2953C135.963 32.0551 136.401 32.6965 137.2 32.9046C138.02 33.1178 138.694 32.7774 139.188 32.1009C139.89 31.1386 139.958 29.3876 139.347 28.3646C138.463 26.8853 136.798 26.9142 135.945 28.4097C135.637 28.9502 135.625 29.5378 135.55 30.1936Z" fill="#0285AD"/>
<path d="M142.982 58.1193C143.126 56.7847 143.404 55.5082 144.528 54.5918C146.146 53.2719 147.975 53.8604 148.973 55.3576C150.126 57.0878 150.185 58.9787 149.125 60.8021C148.436 61.987 147.398 62.6841 145.961 62.4661C144.65 62.2674 143.845 61.4099 143.395 60.2177C143.144 59.5544 142.903 58.8673 142.982 58.1193ZM146.354 55.3786C145.776 55.321 145.293 55.6072 144.936 56.0743C144.048 57.2345 144.038 58.9828 144.876 60.2203C145.638 61.3462 147.198 61.3215 147.94 60.1827C148.643 59.1024 148.663 57.9557 148.256 56.7862C147.943 55.8835 147.242 55.3869 146.354 55.3786Z" fill="#0285AD"/>
<path d="M119.348 44.3064C119.396 42.6455 119.83 41.3658 120.954 40.4204C122.485 39.1318 124.677 39.7529 125.685 41.8195C126.536 43.5651 126.395 45.3409 125.34 46.9614C124.702 47.9416 123.695 48.4835 122.512 48.3566C121.156 48.2111 120.245 47.3699 119.764 46.1023C119.52 45.4613 119.286 44.8002 119.348 44.3064ZM120.671 44.2336C120.715 44.5023 120.75 44.8732 120.838 45.2312C121.051 46.1062 121.808 46.8543 122.572 46.9339C123.472 47.0278 124.069 46.5406 124.46 45.7967C125.108 44.5621 125.075 43.308 124.323 42.1375C123.519 40.8854 121.863 40.9858 121.12 42.2766C120.785 42.8573 120.724 43.4886 120.671 44.2336Z" fill="#0285AD"/>
<path d="M143.34 28.9566C143.34 30.0535 143.34 31.1504 143.341 32.2474C143.341 32.6429 143.336 33.0385 143.343 33.4338C143.35 33.8485 143.215 34.2364 142.778 34.2366C142.346 34.2368 142.218 33.8585 142.22 33.4406C142.23 31.8833 142.224 30.326 142.224 28.7687C142.224 28.1013 142.237 27.4335 142.219 26.7666C142.209 26.3966 142.366 26.1208 142.674 25.9937C143.036 25.8438 143.255 26.1067 143.442 26.3927C144.424 27.8889 145.411 29.3815 146.399 30.8737C146.531 31.0724 146.615 31.3197 146.958 31.4197C146.975 31.1765 147.005 30.9485 147.005 30.7203C147.011 29.3855 147 28.0505 147.016 26.7159C147.021 26.362 147.109 25.9715 147.56 25.9739C147.96 25.9761 148.071 26.3226 148.071 26.6632C148.076 28.9372 148.069 31.2111 148.067 33.4851C148.067 33.8416 147.932 34.1344 147.587 34.2365C147.207 34.3488 147.017 34.0506 146.834 33.7818C145.736 32.165 144.637 30.5483 143.538 28.9316C143.472 28.9399 143.406 28.9483 143.34 28.9566Z" fill="#0285AD"/>
<path d="M128.459 42.9097C128.459 43.9636 128.46 45.0108 128.458 46.0579C128.457 46.5769 128.461 47.0962 128.445 47.6148C128.434 47.9545 128.253 48.1928 127.903 48.1905C127.557 48.1882 127.376 47.9531 127.353 47.6138C127.336 47.3677 127.343 47.1198 127.343 46.8727C127.342 44.8953 127.349 42.9179 127.339 40.9405C127.336 40.5174 127.373 40.1219 127.826 39.9694C128.29 39.8131 128.485 40.2052 128.683 40.5044C129.644 41.9542 130.598 43.4098 131.54 44.8724C131.674 45.0804 131.818 45.2482 132.138 45.491C132.138 43.9502 132.127 42.5505 132.144 41.1511C132.149 40.6903 131.963 39.9901 132.663 39.9798C133.384 39.9693 133.187 40.6847 133.192 41.1343C133.213 43.1361 133.206 45.1383 133.199 47.1404C133.198 47.526 133.271 47.9847 132.792 48.1538C132.268 48.3387 132.074 47.9232 131.835 47.564C130.886 46.1338 129.921 44.7142 128.952 43.2976C128.852 43.152 128.817 42.914 128.459 42.9097Z" fill="#0285AD"/>
<path d="M136.21 58.1863C136.21 57.1722 136.204 56.1581 136.212 55.144C136.218 54.2287 136.401 54.0457 137.281 54.0413C137.699 54.0392 138.119 54.0712 138.534 54.0355C140.416 53.8736 141.547 54.7382 142.031 56.576C142.437 58.1138 142.394 59.6653 141.489 61.0674C140.913 61.9583 140.062 62.3817 139.017 62.4059C138.427 62.4195 137.837 62.4133 137.247 62.4027C136.5 62.3894 136.228 62.1345 136.215 61.377C136.196 60.3138 136.21 59.2499 136.21 58.1863ZM137.411 58.1684H137.415C137.415 58.5889 137.414 59.0094 137.415 59.43C137.416 61.0669 137.416 61.0533 139.041 61.0515C139.793 61.0507 140.315 60.7423 140.602 60.048C141.096 58.8521 141.121 57.6453 140.63 56.4437C140.418 55.9254 140.109 55.4565 139.496 55.4033C138.935 55.3546 138.366 55.3952 137.801 55.3836C137.45 55.3764 137.409 55.5949 137.41 55.8679C137.413 56.6347 137.411 57.4015 137.411 58.1684Z" fill="#0285AD"/>
<path d="M129.846 57.1001C129.846 58.4333 129.847 59.7666 129.846 61.0998C129.846 61.2976 129.866 61.4998 129.832 61.6922C129.777 62.0156 129.65 62.3704 129.278 62.3594C128.905 62.3483 128.772 62.0243 128.772 61.6615C128.773 59.3615 128.77 57.0614 128.774 54.7613C128.774 54.4488 128.854 54.1629 129.214 54.0795C129.594 53.9913 129.78 54.2196 129.97 54.512C131.012 56.1163 132.071 57.7091 133.125 59.3055C133.191 59.406 133.253 59.5193 133.504 59.4531C133.504 58.0835 133.495 56.6878 133.509 55.2924C133.514 54.8053 133.331 54.0779 134.091 54.0985C134.824 54.1184 134.562 54.8467 134.568 55.2862C134.593 57.3139 134.572 59.3422 134.582 61.3702C134.584 61.7919 134.546 62.2025 134.103 62.3456C133.687 62.4799 133.525 62.1044 133.33 61.8167C132.382 60.4177 131.425 59.025 130.467 57.6328C130.32 57.4196 130.153 57.2209 129.995 57.0155C129.945 57.0437 129.896 57.0719 129.846 57.1001Z" fill="#0285AD"/>
<path d="M137.604 44.0791C137.605 42.9922 137.615 41.9053 137.601 40.8186C137.594 40.2067 137.832 39.9064 138.474 39.9249C139.406 39.9516 140.34 39.9362 141.273 39.9316C141.755 39.9292 142.21 40.0003 142.183 40.6162C142.157 41.2005 141.706 41.2867 141.229 41.2846C140.616 41.2818 140.001 41.2988 139.389 41.2769C138.972 41.262 138.826 41.4302 138.836 41.8423C138.887 43.7919 138.578 43.4087 140.334 43.4491C140.579 43.4547 140.825 43.4546 141.07 43.4643C141.471 43.48 141.73 43.6962 141.738 44.0937C141.747 44.5288 141.474 44.7744 141.046 44.7894C140.482 44.8092 139.916 44.8099 139.352 44.7945C138.983 44.7844 138.826 44.9095 138.838 45.3055C138.9 47.2861 138.516 46.9007 140.364 46.9397C140.732 46.9475 141.104 46.9122 141.468 46.954C141.897 47.0033 142.158 47.2791 142.122 47.7258C142.089 48.1254 141.776 48.2102 141.432 48.2101C140.425 48.2096 139.419 48.1996 138.412 48.2146C137.801 48.2237 137.592 47.9122 137.599 47.3395C137.613 46.2528 137.603 45.1659 137.604 44.0791Z" fill="#0285AD"/>
<path d="M119.721 30.1121C119.722 29.0251 119.726 27.938 119.72 26.8509C119.716 26.2 120.019 25.9173 120.67 25.9346C121.603 25.9594 122.536 25.9496 123.469 25.939C123.968 25.9333 124.294 26.1358 124.283 26.6573C124.272 27.1723 123.89 27.2827 123.457 27.2825C122.794 27.2822 122.131 27.2982 121.468 27.2791C121.097 27.2684 120.965 27.3863 120.949 27.7818C120.879 29.4376 120.864 29.4342 122.545 29.4313C122.813 29.4309 123.098 29.4168 123.344 29.501C123.651 29.6062 123.93 29.826 123.848 30.2169C123.776 30.5568 123.563 30.78 123.178 30.7758C122.662 30.7703 122.145 30.7978 121.631 30.7663C121.139 30.7361 120.945 30.8876 120.945 31.4231C120.945 32.9397 120.922 32.9395 122.444 32.9382C122.812 32.9379 123.181 32.9267 123.549 32.9441C123.966 32.9638 124.278 33.184 124.285 33.612C124.292 34.0473 123.984 34.2684 123.56 34.2711C122.528 34.2778 121.497 34.2807 120.466 34.2648C119.9 34.256 119.722 33.8785 119.721 33.3733C119.72 32.2863 119.721 31.1992 119.721 30.1121Z" fill="#0285AD"/>
<path d="M149.596 30.1195C149.595 29.0807 149.588 28.0419 149.598 27.0031C149.605 26.1595 149.821 25.9469 150.638 25.9432C151.523 25.9393 152.408 25.95 153.293 25.9361C153.78 25.9283 154.139 26.0887 154.146 26.622C154.155 27.1876 153.743 27.284 153.284 27.282C152.645 27.2793 152.006 27.2923 151.367 27.2766C151.026 27.2682 150.909 27.3924 150.883 27.7447C150.76 29.4254 150.749 29.424 152.376 29.4304C152.621 29.4314 152.877 29.398 153.11 29.4554C153.46 29.5415 153.737 29.7321 153.709 30.1717C153.681 30.6076 153.436 30.7747 153.033 30.7737C152.492 30.7724 151.951 30.7835 151.411 30.7671C151.038 30.7557 150.908 30.9054 150.881 31.285C150.762 32.9409 150.75 32.9398 152.392 32.9397C152.761 32.9397 153.133 32.9124 153.497 32.9517C153.876 32.9925 154.146 33.2241 154.136 33.6306C154.126 34.0336 153.875 34.2652 153.469 34.2686C152.436 34.2774 151.404 34.2804 150.372 34.2689C149.75 34.262 149.604 33.8234 149.6 33.3101C149.59 32.2467 149.597 31.1831 149.596 30.1195Z" fill="#0285AD"/>
<path d="M173 33.5513C172.957 33.8682 172.858 34.1694 172.526 34.2335C172.212 34.2943 172.002 34.0565 171.955 33.776C171.741 32.4791 170.932 32.156 169.768 32.3655C169.649 32.3869 169.522 32.3824 169.401 32.3679C168.69 32.2825 168.148 32.423 168.068 33.2842C168.05 33.4695 167.926 33.6477 167.838 33.8224C167.697 34.1007 167.491 34.3791 167.161 34.2151C166.883 34.0766 166.694 33.8153 166.84 33.4167C167.62 31.2969 168.379 29.1695 169.146 27.045C169.163 26.9989 169.192 26.957 169.206 26.9103C169.323 26.5149 169.365 26.0074 169.878 25.97C170.46 25.9277 170.531 26.4927 170.673 26.8858C171.415 28.9388 172.132 31.0006 172.856 33.0601C172.913 33.2226 172.953 33.3909 173 33.5513ZM169.889 28.34C169.695 28.8442 169.515 29.2644 169.37 29.6962C168.88 31.1521 168.9 31.1596 170.435 31.0411C170.853 31.0089 170.86 30.8522 170.735 30.5373C170.458 29.8357 170.192 29.1294 169.889 28.34Z" fill="#0285AD"/>
<path d="M127.298 57.4595C127.23 58.2984 127.437 59.4347 127.03 60.5515C126.594 61.7489 125.394 62.3603 124.365 62.3894C123.356 62.418 122.225 61.4083 121.93 60.3281C121.732 59.6047 121.707 58.8663 121.718 58.1212C121.731 57.1563 121.72 56.1911 121.723 55.226C121.723 55.0533 121.704 54.872 121.748 54.7097C121.84 54.3704 121.964 54.0161 122.415 54.0625C122.834 54.1055 122.894 54.4566 122.898 54.7806C122.913 56.0424 122.908 57.3045 122.906 58.5665C122.905 58.9637 122.921 59.35 123.07 59.7309C123.425 60.6357 123.933 60.9767 124.808 60.8564C125.532 60.7567 126.128 60.077 126.147 59.2289C126.177 57.9181 126.156 56.6061 126.158 55.2946C126.159 55.0967 126.155 54.8981 126.17 54.7012C126.197 54.35 126.328 54.0474 126.731 54.0619C127.117 54.0758 127.285 54.371 127.292 54.7228C127.31 55.5389 127.298 56.3556 127.298 57.4595Z" fill="#0285AD"/>
<path d="M113.131 44.1469C113.156 42.217 114.016 40.7654 115.515 40.1623C116.38 39.8141 117.229 39.8631 118.083 40.2304C118.625 40.4631 118.769 40.8605 118.592 41.3654C118.396 41.9212 117.982 41.7024 117.61 41.5686C116.073 41.0152 114.823 41.7717 114.472 43.4669C114.168 44.9292 114.826 46.3994 115.967 46.8158C116.525 47.0197 117.067 46.9628 117.615 46.7584C117.979 46.6226 118.4 46.4363 118.6 46.9882C118.797 47.529 118.557 47.8693 118.053 48.0866C115.922 49.0055 113.603 47.6192 113.217 45.1797C113.163 44.8394 113.158 44.4914 113.131 44.1469Z" fill="#0285AD"/>
<path d="M128.033 30.3697C128.029 27.9809 129.113 26.4701 131.002 26.0099C131.742 25.8295 132.404 26.0414 133.063 26.3258C133.585 26.5512 133.635 26.9808 133.455 27.4345C133.26 27.9232 132.906 27.753 132.538 27.6109C130.956 27.0002 129.703 27.7772 129.337 29.5902C129.18 30.3667 129.31 31.1276 129.658 31.8222C130.165 32.8314 131.422 33.2563 132.513 32.7826C132.933 32.6 133.277 32.4915 133.472 32.998C133.652 33.4691 133.532 33.8228 133.011 34.0632C130.846 35.0619 128.364 33.6138 128.076 31.1527C128.038 30.8346 128.04 30.5119 128.033 30.3697Z" fill="#0285AD"/>
<path d="M156.295 30.299C156.217 32.2143 157.835 33.5587 159.671 32.6881C160.058 32.5044 160.324 32.6808 160.466 32.975C160.65 33.3579 160.597 33.7305 160.169 33.989C158.789 34.8207 156.672 34.3226 155.734 32.8901C154.627 31.2 154.692 28.2543 156.401 26.7728C157.381 25.9244 158.912 25.706 160.049 26.2993C160.536 26.5535 160.675 26.9407 160.477 27.4012C160.272 27.8814 159.894 27.7732 159.483 27.6075C157.751 26.9082 156.25 28.1854 156.295 30.299Z" fill="#0285AD"/>
<path d="M163.491 30.5575C163.49 29.6685 163.463 28.7784 163.501 27.8911C163.523 27.3893 163.338 27.2351 162.87 27.2764C162.554 27.3043 162.232 27.292 161.914 27.2693C161.519 27.2409 161.276 27.0311 161.279 26.6092C161.282 26.1858 161.544 25.9573 161.925 25.9521C163.397 25.9323 164.87 25.9349 166.342 25.9523C166.714 25.9567 166.912 26.2559 166.953 26.584C167 26.9592 166.73 27.1643 166.398 27.2513C166.235 27.2937 166.057 27.2748 165.885 27.2789C164.604 27.3091 164.742 27.071 164.735 28.4841C164.728 30.0151 164.734 31.5461 164.735 33.0771C164.735 33.2252 164.737 33.3736 164.731 33.5215C164.714 33.9481 164.504 34.2643 164.074 34.2458C163.687 34.2292 163.493 33.919 163.492 33.5207C163.49 32.533 163.491 31.5452 163.491 30.5575Z" fill="#0285AD"/>
<path d="M115.227 30.5802C115.226 29.691 115.205 28.8012 115.235 27.913C115.25 27.4418 115.119 27.2263 114.618 27.2743C114.279 27.3069 113.931 27.2837 113.59 27.2572C113.233 27.2295 113.079 26.9717 113.066 26.6499C113.051 26.2924 113.215 25.9716 113.59 25.965C115.111 25.9378 116.633 25.9362 118.154 25.9637C118.536 25.9706 118.652 26.2985 118.652 26.6614C118.651 27.0223 118.468 27.2117 118.133 27.2575C117.939 27.2839 117.741 27.2759 117.545 27.2795C116.293 27.3026 116.477 27.1578 116.47 28.409C116.461 29.9156 116.468 31.4222 116.469 32.9289C116.469 33.1017 116.473 33.2748 116.465 33.4474C116.448 33.8549 116.298 34.2318 115.862 34.244C115.413 34.2565 115.252 33.8582 115.235 33.4696C115.206 32.804 115.227 32.1362 115.227 31.4693C115.227 31.1729 115.227 30.8766 115.227 30.5802Z" fill="#0285AD"/>
<path d="M143.355 43.9946C143.355 42.9827 143.358 41.9707 143.354 40.9588C143.352 40.4925 143.378 39.9764 143.956 39.9569C144.561 39.9365 144.579 40.4606 144.578 40.9251C144.577 42.7022 144.603 44.4798 144.564 46.256C144.551 46.8307 144.743 46.9858 145.274 46.9502C145.835 46.9125 146.402 46.943 146.966 46.9461C147.426 46.9487 147.847 47.0733 147.819 47.6222C147.794 48.1063 147.41 48.2243 146.968 48.2175C146.06 48.2035 145.153 48.1984 144.245 48.216C143.623 48.2281 143.349 47.9452 143.355 47.3265C143.365 46.216 143.358 45.1053 143.358 43.9946H143.355Z" fill="#0285AD"/>
<path d="M66.7479 37.2645C66.9375 36.5541 67.2178 35.9832 67.9066 35.7641C69.1392 35.3719 70.1719 36.1538 70.1745 37.4952C70.1816 41.2567 70.1767 45.0181 70.1755 48.7796C70.1751 50.0258 69.738 50.735 68.8762 50.895C67.8752 51.0808 67.2727 50.6815 66.7433 49.4307C66.0084 50.058 65.2348 50.6016 64.3261 50.9006C61.7463 51.7495 58.8698 50.8154 57.2265 48.6007C55.1616 45.8177 55.0525 41.5018 56.9739 38.6115C59.0142 35.5423 63.0042 34.7433 66.0611 36.7923C66.2641 36.9284 66.4641 37.0692 66.7479 37.2645ZM66.9418 43.4252C66.9871 42.83 66.8399 42.177 66.6293 41.5439C66.0818 39.8981 64.6806 38.8424 62.9924 38.7708C61.393 38.703 59.9385 39.6896 59.2632 41.2913C58.9004 42.152 58.7787 43.052 58.8585 43.9735C59.0944 46.6995 61.1084 48.4509 63.523 48.0492C65.5666 47.7092 66.9218 45.9092 66.9418 43.4252Z" fill="#FDFDFD"/>
<path d="M14.9739 37.9082C15.4913 37.4531 15.8669 37.1011 16.2646 36.7767C17.7026 35.6036 19.3605 35.4578 21.075 35.867C23.1869 36.3711 23.8041 38.0848 24.1405 39.9645C24.2755 40.7191 24.306 41.4859 24.3034 42.2546C24.2954 44.5545 24.3151 46.8544 24.2961 49.1541C24.2868 50.275 23.6015 50.9356 22.5529 50.9128C21.5593 50.8913 20.93 50.2088 20.926 49.1111C20.9179 46.8854 20.9246 44.6597 20.924 42.4341C20.924 42.1622 20.9267 41.8896 20.9107 41.6184C20.7978 39.6935 19.919 38.7589 18.2351 38.7659C16.4138 38.7735 15.044 39.9712 15.0024 41.7269C14.9445 44.1738 14.9854 46.6229 14.9712 49.071C14.9647 50.1879 14.3535 50.8769 13.3775 50.9132C12.3422 50.9518 11.6234 50.3063 11.6215 49.262C11.6112 43.4753 11.6129 37.6886 11.6208 31.9019C11.6222 30.9264 12.2873 30.2583 13.221 30.2321C14.2246 30.2039 14.9488 30.8752 14.9652 31.925C14.9911 33.5815 14.9733 35.2387 14.9739 36.8956C14.974 37.1853 14.9739 37.4751 14.9739 37.9082Z" fill="#FDFDFD"/>
<path d="M36.6414 51.2002C32.3277 51.313 28.733 48.2894 27.6492 44.4248C27.45 43.7146 27.2376 43.0213 27.2437 42.2721C27.2544 40.9896 27.6621 40.411 28.6402 40.352C30.0889 40.2646 30.7866 40.8025 30.9164 42.1195C31.0441 43.416 31.512 44.5582 32.2697 45.6254C34.235 48.3934 38.2698 48.4384 40.4277 46.2276C41.6236 45.0025 42.1349 43.5215 42.4115 41.903C42.6146 40.7139 43.3142 40.1228 44.4038 40.234C45.4479 40.3405 46.0571 41.0724 46.0059 42.223C45.8517 45.69 43.4162 49.4455 39.8284 50.6635C38.7465 51.0308 37.664 51.2673 36.6414 51.2002Z" fill="#C9DB38"/>
<path d="M37.8084 29.9531C33.6616 29.9738 30.4167 32.9994 30.0487 37.1878C30.0271 37.4341 30.0045 37.6804 29.9744 37.9258C29.8651 38.8165 29.4051 39.2955 28.6403 39.3203C27.8866 39.3447 27.2335 38.8181 27.0926 38.0091C26.8035 36.3495 27.0557 34.7413 27.755 33.2324C29.6265 29.1946 32.8016 27.0387 37.2185 26.7339C37.5302 26.7124 37.8636 26.728 37.8929 27.1203C37.9306 27.6242 37.5349 27.6088 37.1789 27.6319C32.8821 27.9115 29.4955 30.5227 28.2134 34.5232C27.906 35.4823 27.8415 36.4624 27.9026 37.4548C27.9305 37.9077 28.0171 38.4279 28.5963 38.4141C29.174 38.4004 29.1273 37.8676 29.151 37.4548C29.379 33.4777 31.7967 30.3984 35.5076 29.3645C40.4778 27.9798 45.5925 31.4072 46.2263 36.5518C46.2994 37.145 46.2895 37.7406 46.0823 38.3109C45.8726 38.8883 45.5107 39.2881 44.8449 39.294C44.1787 39.2999 43.7246 38.9858 43.4703 38.373C43.2875 37.9324 43.2879 37.455 43.2028 36.9945C42.7754 34.6831 41.5347 33.0458 39.2343 32.4055C36.9276 31.7634 34.966 32.4114 33.4022 34.2364C32.5897 35.1846 32.3042 36.3232 32.3346 37.5444C32.3432 37.8918 32.3503 38.3957 32.8333 38.4092C33.3643 38.4241 33.2718 37.9196 33.3021 37.5683C33.4688 35.6306 34.3147 34.1245 36.198 33.4825C37.9617 32.8813 39.6139 33.2421 40.9418 34.6171C41.8437 35.5508 42.1963 36.7263 42.123 38.0173C42.0789 38.794 41.6502 39.2476 40.9667 39.3263C40.1708 39.4181 39.6564 39.0819 39.449 38.259C39.2051 37.2908 38.8346 36.4774 37.6998 36.335C37.4356 36.3018 37.3391 36.0828 37.3846 35.8358C37.4413 35.5278 37.6774 35.4874 37.9472 35.4897C38.7768 35.4968 39.7474 36.2977 40.0943 37.2874C40.1675 37.4963 40.2026 37.7184 40.2649 37.9316C40.3524 38.2317 40.4727 38.5012 40.8656 38.4352C41.2207 38.3756 41.2426 38.0905 41.2658 37.8171C41.3696 36.592 40.5543 35.1428 39.4383 34.5594C37.074 33.3236 34.5044 34.7092 34.2005 37.3852C34.1838 37.5323 34.1883 37.6818 34.1769 37.8297C34.1053 38.7582 33.6684 39.2941 32.9545 39.3319C32.1477 39.3747 31.6297 38.8818 31.4978 37.8966C31.3532 36.8161 31.5198 35.774 32.0033 34.7972C33.2207 32.3374 35.9326 30.9238 38.6132 31.3372C41.4691 31.7776 43.6102 33.8911 44.065 36.7218C44.116 37.0389 44.1492 37.359 44.1991 37.6763C44.2554 38.035 44.3606 38.4005 44.7995 38.3865C45.2568 38.372 45.3003 37.9573 45.3311 37.6213C45.4477 36.3501 45.1171 35.1749 44.535 34.055C43.2602 31.6026 40.5411 29.9394 37.8084 29.9531Z" fill="#FDFDFD"/>
<path d="M49.2223 40.5042C49.2227 37.7103 49.2288 34.9163 49.2189 32.1224C49.216 31.2999 49.5058 30.6694 50.2862 30.3525C51.3227 29.9317 52.3655 30.5313 52.5619 31.6435C52.596 31.8366 52.6035 32.0366 52.6036 32.2334C52.6056 37.8212 52.6075 43.409 52.6027 48.9969C52.6017 50.0649 52.0784 50.7651 51.2185 50.899C50.0654 51.0786 49.2342 50.3563 49.2271 49.1085C49.2108 46.2405 49.2219 43.3723 49.2223 40.5042Z" fill="#FDFDFD"/>
<path d="M78.7537 30.1286C78.6909 32.9342 76.3725 35.1994 73.6069 35.1572C70.8292 35.1148 68.5502 32.7697 68.5906 29.9951C68.6318 27.1632 70.9998 24.8498 73.7753 24.93C76.5732 25.0109 78.8159 27.3527 78.7537 30.1286ZM73.624 34.2652C75.9069 34.2986 77.818 32.4361 77.8676 30.1294C77.9177 27.7976 76.0584 25.8624 73.7211 25.8138C71.4305 25.7662 69.4837 27.697 69.4676 30.0322C69.4518 32.321 71.3279 34.2316 73.624 34.2652Z" fill="#FDFDFD"/>
<path d="M51.4812 58.3362C51.4812 57.7803 51.4803 57.2244 51.4816 56.6685C51.4821 56.4377 51.4984 56.1735 51.7921 56.1763C52.088 56.1791 52.0927 56.4505 52.0935 56.6765C52.0967 57.5412 52.0983 58.4059 52.0939 59.2707C52.0929 59.4643 52.1127 59.6861 51.8872 59.7823C51.6312 59.8915 51.474 59.7264 51.3304 59.5447C50.8177 58.8959 50.3042 58.2477 49.6122 57.6431C49.6122 58.169 49.6238 58.6952 49.6068 59.2204C49.5995 59.4456 49.6859 59.7814 49.3245 59.7993C48.9695 59.8168 48.9927 59.5016 48.9912 59.2592C48.986 58.3943 48.9908 57.5294 48.991 56.6646C48.9911 56.4571 49.0188 56.2561 49.2456 56.1815C49.4726 56.1069 49.6102 56.2604 49.7352 56.4203C50.2487 57.0769 50.7621 57.7335 51.2756 58.3902C51.3441 58.3722 51.4127 58.3542 51.4812 58.3362Z" fill="#FDFDFD"/>
<path d="M44.0687 56.1468C44.2896 56.1468 44.5121 56.1293 44.7311 56.15C45.5016 56.2229 46.0562 56.9834 45.665 57.6223C45.3065 58.2075 45.6486 58.6323 45.682 59.1276C45.697 59.3511 46.1611 59.6119 45.7117 59.7811C45.2842 59.9422 45.056 59.5779 45.0341 59.2157C44.9975 58.6069 44.6649 58.5122 44.1546 58.4996C43.6909 58.4881 43.5485 58.6582 43.5757 59.1006C43.5923 59.3715 43.689 59.7884 43.2555 59.7928C42.7593 59.7977 42.9102 59.3524 42.9021 59.0595C42.8865 58.4918 42.8932 57.9235 42.8942 57.3555C42.8963 56.1418 42.8972 56.1418 44.0687 56.1468ZM44.2238 57.9402C44.7196 58.0021 45.0738 57.8499 45.0621 57.2878C45.0508 56.7451 44.6658 56.7198 44.2337 56.6918C43.7099 56.6578 43.5671 56.8418 43.5659 57.3583C43.5647 57.8825 43.7726 58.0163 44.2238 57.9402Z" fill="#FDFDFD"/>
<path d="M25.5014 57.6426C25.5014 58.1994 25.5083 58.7564 25.4979 59.313C25.4939 59.5271 25.5113 59.8079 25.1927 59.7984C24.877 59.789 24.9109 59.511 24.9094 59.2955C24.9031 58.4319 24.9034 57.5682 24.9045 56.7045C24.9047 56.5087 24.8812 56.2834 25.1089 56.1947C25.3587 56.0974 25.5126 56.2547 25.6576 56.4448C26.1726 57.1205 26.6982 57.7881 27.3927 58.4107C27.3927 57.8333 27.3889 57.2558 27.3946 56.6784C27.3967 56.461 27.3703 56.1844 27.685 56.1815C27.9991 56.1786 27.9827 56.4547 27.9841 56.6723C27.9895 57.5112 27.9907 58.3503 27.9821 59.1892C27.9797 59.4211 28.0585 59.7105 27.7226 59.7994C27.4514 59.8712 27.3242 59.6565 27.1895 59.4884C26.6848 58.8582 26.1879 58.2217 25.688 57.5875C25.6258 57.6059 25.5636 57.6242 25.5014 57.6426Z" fill="#FDFDFD"/>
<path d="M37.2391 57.9974C37.2391 57.9479 37.2396 57.8984 37.239 57.849C37.2181 55.9939 37.3215 55.9053 39.1827 56.1434C39.3896 56.1699 39.6098 56.1893 39.593 56.4509C39.5755 56.7225 39.3323 56.6939 39.1384 56.6976C38.8926 56.7024 38.646 56.7153 38.4012 56.7008C38.0529 56.6801 37.923 56.8298 37.9228 57.1788C37.9226 57.5222 38.0456 57.6526 38.3924 57.6753C38.7297 57.6973 39.3376 57.4858 39.3373 57.9187C39.3369 58.4708 38.7187 58.1887 38.3753 58.2112C37.9405 58.2398 37.9424 58.4885 37.9224 58.8063C37.8985 59.186 38.0837 59.273 38.4071 59.2585C38.6768 59.2463 38.9477 59.263 39.218 59.2595C39.4116 59.257 39.5702 59.3163 39.5929 59.5256C39.6174 59.7525 39.4572 59.8203 39.2647 59.821C38.724 59.8231 38.1832 59.8185 37.6425 59.8215C37.3066 59.8233 37.2362 59.6061 37.2345 59.3327C37.2317 58.8876 37.2337 58.4425 37.2337 57.9974C37.2355 57.9974 37.2373 57.9974 37.2391 57.9974Z" fill="#FDFDFD"/>
<path d="M55.4902 57.9607C55.4894 57.9112 55.4894 57.8617 55.4894 57.8123C55.4917 56.0264 55.6743 55.8756 57.4759 56.137C57.695 56.1687 57.8882 56.2253 57.8684 56.4722C57.851 56.6887 57.6459 56.6984 57.4675 56.6986C57.197 56.6989 56.9258 56.7157 56.6564 56.7001C56.3128 56.6804 56.1718 56.8024 56.1898 57.1696C56.2062 57.5017 56.3044 57.6431 56.6559 57.6794C56.997 57.7146 57.6158 57.4191 57.6067 57.9831C57.5997 58.4197 56.9917 58.1928 56.6595 58.2117C56.2336 58.2359 56.2151 58.4673 56.1872 58.7928C56.1553 59.1652 56.3033 59.2764 56.6441 59.259C56.9381 59.244 57.2338 59.2591 57.5287 59.2642C57.7271 59.2677 57.8705 59.3607 57.868 59.5694C57.8659 59.7444 57.7304 59.8175 57.5658 59.8182C57.0004 59.8206 56.4349 59.8276 55.8697 59.817C55.536 59.8108 55.4912 59.5632 55.4911 59.2966C55.4908 58.8513 55.491 58.406 55.4902 57.9607Z" fill="#FDFDFD"/>
<path d="M61.9514 58.2225C61.9514 58.0002 61.9344 57.7764 61.9548 57.5561C62.006 57.0026 61.9641 56.5558 61.2142 56.6904C61.0391 56.7218 60.8512 56.6446 60.8607 56.4203C60.8697 56.2064 61.0491 56.1471 61.2321 56.146C61.9437 56.1416 62.6553 56.1421 63.3669 56.1455C63.5781 56.1465 63.786 56.201 63.7656 56.4641C63.7485 56.6836 63.5458 56.7244 63.372 56.6954C62.6646 56.5776 62.6352 56.9977 62.6628 57.5284C62.6934 58.1194 62.6714 58.7132 62.6686 59.3058C62.6674 59.5676 62.6357 59.8233 62.2871 59.8103C61.9846 59.799 61.957 59.5681 61.9558 59.3336C61.9538 58.9632 61.9553 58.5928 61.9553 58.2225H61.9514Z" fill="#FDFDFD"/>
<path d="M33.0081 58.1852C33.0073 58.5059 33.0187 58.8271 33.0038 59.1471C32.991 59.4209 33.1038 59.8219 32.6413 59.7994C32.2032 59.7781 32.312 59.3823 32.3047 59.1091C32.289 58.5175 32.2754 57.9239 32.3069 57.3335C32.3316 56.8721 32.2184 56.6291 31.704 56.6938C31.5039 56.719 31.2049 56.7562 31.22 56.4164C31.2342 56.0967 31.5196 56.1495 31.7295 56.147C32.3913 56.1392 33.0533 56.1394 33.7151 56.1445C33.8899 56.1459 34.0759 56.1827 34.112 56.393C34.1415 56.5654 34.0172 56.7085 33.8617 56.6821C32.8395 56.5087 32.9893 57.2071 33.0084 57.8152C33.0122 57.9385 33.0089 58.0619 33.0081 58.1852Z" fill="#FDFDFD"/>
<path d="M20.8752 57.9587C20.8749 57.5172 20.8742 57.0756 20.8752 56.634C20.8758 56.3979 20.9131 56.1684 21.2133 56.177C21.4612 56.1841 21.5212 56.3822 21.5218 56.5943C21.5243 57.5265 21.5262 58.4587 21.5214 59.3908C21.5204 59.5946 21.4787 59.7936 21.2155 59.8066C20.8915 59.8226 20.881 59.5821 20.8777 59.357C20.8707 58.891 20.8756 58.4248 20.8752 57.9587Z" fill="#FDFDFD"/>
<path d="M66.9418 43.4252C66.9217 45.9093 65.5666 47.7093 63.523 48.0493C61.1084 48.451 59.0943 46.6995 58.8584 43.9736C58.7787 43.052 58.9003 42.1521 59.2632 41.2914C59.9385 39.6896 61.393 38.703 62.9923 38.7709C64.6806 38.8424 66.0817 39.8981 66.6292 41.5439C66.8399 42.177 66.987 42.8301 66.9418 43.4252Z" fill="#0285AD"/>
<path d="M73.624 34.2652C71.3279 34.2316 69.4518 32.321 69.4676 30.0323C69.4837 27.697 71.4306 25.7662 73.7211 25.8139C76.0584 25.8625 77.9177 27.7976 77.8676 30.1295C77.818 32.4361 75.907 34.2987 73.624 34.2652ZM74.4443 30.4645C74.5725 30.3899 74.6691 30.3219 74.7747 30.2741C75.443 29.9715 75.6447 29.4247 75.4791 28.7587C75.3176 28.1091 74.7974 27.9017 74.1824 27.8898C73.5448 27.8775 72.9068 27.8794 72.2694 27.8588C71.9577 27.8488 71.8308 27.9679 71.8333 28.2876C71.8431 29.5223 71.8435 30.7572 71.8333 31.9919C71.8304 32.3349 72.0055 32.3973 72.2943 32.4009C72.598 32.4047 72.7542 32.307 72.7371 31.9787C72.7229 31.7079 72.7173 31.4339 72.7421 31.1645C72.7624 30.9429 72.6096 30.627 72.9549 30.5393C73.231 30.4692 73.5099 30.5637 73.6889 30.7842C73.9519 31.108 74.2094 31.4461 74.4061 31.8125C74.718 32.3936 75.1623 32.5234 75.7879 32.3189C75.4625 31.6195 75.0663 30.9862 74.4443 30.4645Z" fill="#0285AD"/>
<path d="M44.2238 57.9401C43.7726 58.0162 43.5647 57.8824 43.5659 57.3582C43.5671 56.8417 43.7099 56.6577 44.2337 56.6917C44.6658 56.7196 45.0508 56.745 45.0621 57.2877C45.0738 57.8498 44.7196 58.002 44.2238 57.9401Z" fill="#0285AD"/>
<path d="M74.4443 30.4644C75.0663 30.9861 75.4625 31.6194 75.7879 32.3188C75.1623 32.5233 74.718 32.3936 74.4061 31.8124C74.2094 31.446 73.9519 31.1079 73.6889 30.7841C73.5099 30.5636 73.231 30.4691 72.9549 30.5392C72.6096 30.6269 72.7624 30.9428 72.7421 31.1644C72.7173 31.4338 72.7229 31.7078 72.7371 31.9786C72.7542 32.3069 72.598 32.4046 72.2943 32.4008C72.0055 32.3972 71.8304 32.3349 71.8333 31.9918C71.8435 30.7571 71.8431 29.5222 71.8333 28.2875C71.8308 27.9678 71.9577 27.8487 72.2694 27.8587C72.9068 27.8793 73.5448 27.8774 74.1824 27.8897C74.7974 27.9016 75.3176 28.109 75.4791 28.7586C75.6447 29.4246 75.443 29.9715 74.7747 30.274C74.6691 30.3218 74.5725 30.3898 74.4443 30.4644ZM73.3848 29.7954C74.0259 29.796 74.6467 29.8344 74.576 29.1911C74.5002 28.5017 73.774 28.7251 73.3063 28.6246C72.8696 28.5308 72.7484 28.7315 72.7192 29.1796C72.671 29.9173 73.1278 29.8041 73.3848 29.7954Z" fill="#FDFDFD"/>
<path d="M73.3848 29.7955C73.1279 29.8042 72.671 29.9174 72.7192 29.1797C72.7484 28.7315 72.8696 28.5308 73.3063 28.6247C73.774 28.7252 74.5002 28.5018 74.576 29.1912C74.6467 29.8345 74.026 29.796 73.3848 29.7955Z" fill="#0285AD"/>
</g>
<defs>
<clipPath id="clip0_4512_1389">
<rect width="173" height="86" fill="white" transform="translate(0 1)"/>
</clipPath>
</defs>
</svg>
