<svg xmlns="http://www.w3.org/2000/svg" viewBox="-5 340 1010 350">
  <g transform="translate(-55.5,-1002.345)">
    <path id="A1" d="m 106.128,1354.929 -50.435,117.264 32.836,0 9.306,-23.482 54.1,0 9.258,23.482 33.559,0 -50.387,-117.264 -38.236,0 z m 18.66,27.291 16.49,41.033 -33.029,0 16.539,-41.033 z" fill="#006FCF"/>
    <path id="M" d="m 198.223,1472.174 0,-117.264 46.662,0.173 27.14,75.605 26.49,-75.778 46.288,0 0,117.264 -29.316,0 0,-86.405 -31.076,86.405 -25.71,0 -31.162,-86.405 0,86.405 z" fill="#006FCF"/>
    <path id="E1" d="m 364.861,1472.174 0,-117.264 95.663,0 0,26.23 -66.038,0 0,20.058 64.495,0 0,24.687 -64.495,0 0,20.83 66.038,0 0,25.459 z" fill="#006FCF"/>
    <path id="R" d="m 477.497,1354.929 0,117.264 29.316,0 0,-41.66 12.344,0 35.15,41.66 35.825,0 -38.574,-43.203 c 15.831,-1.336 32.161,-14.923 32.161,-36.018 0,-24.677 -19.368,-38.043 -40.985,-38.043 l -65.238,0 z m 29.316,26.23 33.511,0 c 8.039,0 13.887,6.288 13.887,12.344 0,7.79 -7.577,12.344 -13.453,12.344 l -33.945,0 0,-24.687 z" fill="#006FCF"/>
    <path id="I" d="m 625.62,1472.174 -29.933,0 0,-117.264 29.933,0 z" fill="#006FCF"/>
    <path id="C" d="m 696.595,1472.174 -6.461,0 c -31.262,0 -50.242,-24.629 -50.242,-58.15 0,-34.349 18.768,-59.114 58.246,-59.114 l 32.402,0 0,27.773 -33.587,0 c -16.026,0 -27.36,12.507 -27.36,31.631 0,22.71 12.96,32.248 31.63,32.248 l 7.715,0 z" fill="#006FCF"/>
    <path id="A2" d="m 760.387,1354.929 -50.435,117.264 32.836,0 9.306,-23.482 54.1,0 9.258,23.482 33.559,0 -50.387,-117.264 -38.236,0 z m 18.66,27.291 16.49,41.033 -33.029,0 16.539,-41.033 z" fill="#006FCF"/>
    <path id="N" d="m 852.433,1472.174 0,-117.264 37.272,0 47.59,73.676 0,-73.676 29.316,0 0,117.264 -36.066,0 -48.796,-75.605 0,75.605 z" fill="#006FCF"/>
    <path id="E2" d="m 269.199,1677.386 0,-117.264 95.663,0 0,26.23 -66.038,0 0,20.058 64.495,0 0,24.687 -64.495,0 0,20.83 66.038,0 0,25.459 z" fill="#006FCF"/>
    <path id="X" d="m 368.574,1677.386 46.578,-57.909 -47.687,-59.355 36.934,0 28.4,36.693 28.496,-36.693 35.488,0 -47.06,58.632 46.664,58.632 -36.929,0 -27.575,-36.115 -26.905,36.115 z" fill="#006FCF"/>
    <path id="P" d="m 499.869,1560.141 0,117.264 30.088,0 0,-37.031 30.859,0 c 26.111,0 45.903,-13.852 45.903,-40.792 0,-22.316 -15.523,-39.442 -42.094,-39.442 l -64.756,0 z m 30.088,26.519 32.498,0 c 8.435,0 14.465,5.17 14.465,13.501 0,7.826 -5.999,13.501 -14.562,13.501 l -32.402,0 0,-27.002 z" fill="#006FCF"/>
    <path id="R2" d="m 619.448,1560.122 0,117.264 29.316,0 0,-41.66 12.344,0 35.15,41.66 35.825,0 -38.574,-43.203 c 15.831,-1.336 32.161,-14.923 32.161,-36.018 0,-24.676 -19.368,-38.043 -40.985,-38.043 l -65.238,0 z m 29.316,26.23 33.511,0 c 8.039,0 13.887,6.288 13.887,12.344 0,7.791 -7.577,12.344 -13.453,12.344 l -33.945,0 0,-24.687 z" fill="#006FCF"/>
    <path id="E3" d="m 737.947,1677.386 0,-117.264 95.663,0 0,26.23 -66.038,0 0,20.058 64.187,0 0,24.687 -64.187,0 0,20.83 66.038,0 0,25.459 z" fill="#006FCF"/>
    <path id="S1" d="m 847.187,1677.386 0,-25.459 58.671,0 c 8.681,0 12.44,-4.691 12.44,-9.836 0,-4.93 -3.747,-9.913 -12.44,-9.913 l -26.513,0 c -23.046,0 -35.88,-14.041 -35.88,-35.121 0,-18.802 11.753,-36.934 46,-36.934 l 57.089,0 -12.344,26.384 -49.374,0 c -9.438,0 -12.344,4.953 -12.344,9.682 0,4.861 3.59,10.222 10.801,10.222 l 27.773,0 c 25.69,0 36.838,14.572 36.838,33.656 0,20.516 -12.422,37.32 -38.237,37.32 z" fill="#006FCF"/>
    <path id="S2" d="m 954.784,1677.386 0,-25.459 58.671,0 c 8.681,0 12.44,-4.691 12.44,-9.836 0,-4.93 -3.747,-9.913 -12.44,-9.913 l -26.513,0 c -23.046,0 -35.88,-14.041 -35.88,-35.121 0,-18.802 11.753,-36.934 46,-36.934 l 57.089,0 -12.344,26.384 -49.374,0 c -9.438,0 -12.344,4.953 -12.344,9.682 0,4.861 3.59,10.222 10.801,10.222 l 27.773,0 c 25.69,0 36.838,14.572 36.838,33.656 0,20.516 -12.422,37.32 -38.237,37.32 z" fill="#006FCF"/>
  </g>
</svg>